PathFileType	4	(X/Y/Z)	E:\Qualisys_Data\Carbon_Farble_Plate\Data\Amateur_Runner\S1\T3\S1T3V22_c3d.trc
DataRate	CameraRate	NumFrames	NumMarkers	Units	OrigDataRate	OrigDataStartFrame	OrigNumFrames
200.000000	200.000000	4	39	mm	200.000000	222	297
Frame#	Time	LSHO			RSHO			LICST			RICST			LASIS			LHEEL			RASIS			LTROC			RTROC			SACR			LTH1			LSK4			LTH2			LTH3			RHM5			LSK2			LTH4			RTH1			LTOE			RTH2			RTH3			RTH4			LLEP			RLEP			LSK1			LSK3			RSK1			LHM5			RSK2			LFT1			RSK3			RSK4			LLME			RLME			RTOE			RHEEL			RFT1			RFT2			LFT2			
		X1	Y1	Z1	X2	Y2	Z2	X3	Y3	Z3	X4	Y4	Z4	X5	Y5	Z5	X6	Y6	Z6	X7	Y7	Z7	X8	Y8	Z8	X9	Y9	Z9	X10	Y10	Z10	X11	Y11	Z11	X12	Y12	Z12	X13	Y13	Z13	X14	Y14	Z14	X15	Y15	Z15	X16	Y16	Z16	X17	Y17	Z17	X18	Y18	Z18	X19	Y19	Z19	X20	Y20	Z20	X21	Y21	Z21	X22	Y22	Z22	X23	Y23	Z23	X24	Y24	Z24	X25	Y25	Z25	X26	Y26	Z26	X27	Y27	Z27	X28	Y28	Z28	X29	Y29	Z29	X30	Y30	Z30	X31	Y31	Z31	X32	Y32	Z32	X33	Y33	Z33	X34	Y34	Z34	X35	Y35	Z35	X36	Y36	Z36	X37	Y37	Z37	X38	Y38	Z38	X39	Y39	Z39	

223	1.11	1435.927490234375	1492.81298828125	-575.35400390625	1496.373657226562	1509.075561523438	-260.0538330078125	1456.584716796875	1037.586303710938	-527.1598510742188	1474.505249023438	1042.643188476562	-229.1272430419922	1504.75732421875	1002.270202636719	-503.6469116210938	1607.62255859375	74.06426239013672	-431.3064575195312	1510.574829101562	993.06201171875	-240.5083618164062	1409.05517578125	912.4607543945312	-547.3892822265625	1392.468627929688	912.082275390625	-202.3687591552734	1346.79296875	1051.509521484375	-367.7756958007812	1577.794677734375	795.1590576171875	-530.1982421875	1578.98876953125	232.3295288085938	-466.0930786132812	1502.421630859375	762.4730224609375	-555.1165771484375	1610.416625976562	697.598388671875	-513.9200439453125	896.6849365234375	313.9773559570312	-248.4538726806641	1567.095092773438	328.0657348632812	-507.5838928222656	1531.858032226562	668.8099365234375	-531.2670288085938	1488.668212890625	762.7620849609375	-238.3125457763672	1843.1494140625	150.1545257568359	-458.8061218261719	1416.61474609375	774.1371459960938	-208.6985473632812	1469.57373046875	663.5977172851562	-245.4236907958984	1393.019409179688	678.0175170898438	-224.5811157226562	1610.248779296875	542.6336059570312	-494.1979064941406	1369.9140625	511.2366943359375	-258.1274719238281	1652.155517578125	333.786865234375	-500.9049987792969	1655.248046875	232.9844207763672	-493.7886962890625	1188.638061523438	466.3135070800781	-243.9664916992188	1784.059692382812	99.38166046142578	-510.1661987304688	1175.31396484375	544.5498046875	-262.878173828125	1626.170043945312	51.34199905395508	-401.2753601074219	1091.301391601562	444.146240234375	-256.9869689941406	1078.97998046875	519.6295776367188	-284.0198364257812	1646.835815429688	106.1321640014648	-483.1571655273438	959.0689086914062	452.1572265625	-260.1198425292969	917.7450561523438	260.0876159667969	-317.8059387207031	919.9069213867188	511.6750793457031	-306.2767333984375	896.0272216796875	500.3729858398438	-337.7240600585938	893.953369140625	509.4767761230469	-285.3349609375	1620.781860351562	41.9904899597168	-451.6993408203125
224	1.115	1457.463134765625	1487.473754882812	-576.6970825195312	1516.565673828125	1505.0263671875	-260.5738525390625	1475.733154296875	1033.836181640625	-527.859130859375	1494.921020507812	1038.13037109375	-229.3455505371094	1523.986572265625	998.1981201171876	-504.7898254394531	1613.991333007812	72.76482391357422	-430.9407653808594	1530.6572265625	988.645751953125	-241.5431976318359	1427.783813476562	908.1648559570312	-547.5833740234375	1413.809936523438	906.470703125	-202.9701690673828	1366.794311523438	1046.84228515625	-368.0055847167969	1597.408447265625	792.1837768554688	-531.2806396484375	1590.757446289062	227.5463104248047	-464.9144592285156	1521.876342773438	758.6925659179688	-554.9769287109375	1630.56591796875	694.7792358398438	-514.5648193359375	923.8588256835938	320.9193725585938	-247.1185913085938	1581.0595703125	323.1712036132812	-506.1763000488281	1551.941772460938	665.619384765625	-530.3299560546875	1512.355834960938	758.4214477539062	-237.5924835205078	1853.51708984375	133.6549682617188	-458.1141052246094	1439.444213867188	769.203857421875	-209.0730285644531	1495.193237304688	659.544189453125	-244.3482666015625	1417.737426757812	672.346435546875	-225.1207122802734	1628.091552734375	537.8428344726562	-494.9219055175781	1399.072509765625	505.7056884765625	-257.2669067382812	1665.763305664062	327.5798034667969	-500.4465942382812	1667.091918945312	226.4070129394531	-492.9749755859375	1218.240478515625	464.6705322265625	-243.6858215332031	1790.408203125	86.30557250976562	-506.4847106933594	1206.564453125	543.359375	-263.681396484375	1631.104248046875	49.53104400634766	-400.7166748046875	1120.27734375	445.4685668945312	-256.8481750488281	1109.811157226562	521.1942749023438	-284.4482727050781	1655.0751953125	102.6399078369141	-482.3902587890625	988.4886474609376	457.2390441894531	-260.7093505859375	943.5740966796876	265.4506225585938	-316.5216369628906	950.7312622070312	516.7138061523438	-307.2953796386719	926.1477661132812	506.4091491699219	-339.4807434082031	924.7125854492188	514.9306640625	-286.7813720703125	1625.764282226562	44.40100860595703	-452.5997619628906
225	1.12	1478.889892578125	1482.197875976562	-578.0624389648438	1536.852172851562	1500.491333007812	-261.299560546875	1494.897705078125	1029.80078125	-528.287841796875	1514.964965820312	1033.686889648438	-230.16845703125	1544.716064453125	995.0026245117188	-506.7528991699219	1619.881225585938	72.531494140625	-431.2522888183594	1551.054565429688	983.7922973632812	-242.2482757568359	1446.246826171875	904.2813720703124	-547.881591796875	1434.755493164062	901.2218627929688	-204.0613861083984	1386.994384765625	1042.17431640625	-368.052734375	1616.285034179688	788.4161987304688	-532.1060180664062	1601.91357421875	223.2470397949219	-464.0991516113281	1541.275512695312	754.6627807617188	-555.2102661132812	1650.483520507812	691.3331298828125	-514.8690185546875	951.705810546875	327.0274963378906	-246.2377471923828	1595.537963867188	319.1995544433594	-504.83203125	1571.565307617188	661.7452392578125	-529.937744140625	1535.817993164062	754.6219482421875	-237.247802734375	1862.571166992188	116.1590194702148	-457.3190307617188	1462.482421875	763.8737182617188	-209.6570434570312	1520.991333007812	654.8081665039062	-243.1024322509766	1442.69140625	666.55419921875	-225.3499298095703	1645.474487304688	532.7345581054688	-496.0470581054688	1428.406860351562	500.5399780273438	-256.2995910644531	1679.558959960938	321.0505676269531	-499.5792541503906	1678.180786132812	220.2122344970703	-491.9218444824219	1247.849731445312	463.3319091796875	-243.1733245849609	1796.997436523438	72.48697662353516	-505.1590881347656	1238.706787109375	541.8665771484375	-263.9839782714844	1636.240234375	48.78765106201172	-399.9749755859375	1150.098022460938	446.2934265136719	-256.5936889648438	1141.212280273438	522.0557861328125	-284.7467956542969	1662.557373046875	97.99098205566406	-481.8035888671875	1018.368835449219	461.8639526367188	-260.6467895507812	970.647705078125	270.1893920898438	-314.5315246582031	981.5257568359376	521.62255859375	-308.7689514160156	956.4732055664062	511.2470397949219	-341.0486145019531	955.5926513671876	520.3721923828125	-288.5797729492188	1628.96533203125	40.54539489746094	-451.0709838867188
226	1.125	1500.235107421875	1476.69189453125	-579.163818359375	1556.55224609375	1495.792358398438	-261.8200073242188	1513.924926757812	1025.551391601562	-529.222900390625	1535.22607421875	1028.434204101562	-230.7825317382812	1563.942626953125	990.5114135742188	-507.9640502929688	1625.261352539062	72.63224029541016	-433.2122802734375	1571.724609375	979.2036743164062	-243.0696258544922	1464.864379882812	899.6629028320312	-548.4608764648438	1455.617919921875	895.787109375	-205.4779357910156	1406.724853515625	1037.531372070312	-367.9577941894531	1634.994995117188	783.8248901367188	-532.7542724609375	1612.265014648438	219.6494750976562	-463.3341979980469	1560.061279296875	749.7283935546875	-555.420166015625	1669.481811523438	686.8890991210938	-515.4474487304688	980.56103515625	332.6487731933594	-245.3500671386719	1608.500366210938	315.748779296875	-504.8873291015625	1590.785766601562	656.75341796875	-530.1201171875	1559.821899414062	750.88671875	-236.7270050048828	1871.41650390625	99.29813385009766	-455.5461730957031	1485.35400390625	758.6976318359375	-209.0274810791016	1546.605834960938	650.44873046875	-242.0625762939453	1468.085815429688	660.7928466796875	-225.2402801513672	1663.203491210938	527.4762573242188	-497.1235046386719	1458.380249023438	495.1410522460938	-255.0763549804688	1693.037109375	315.1839904785156	-498.7128601074219	1688.1640625	214.2514190673828	-490.5844116210938	1278.37646484375	461.9296264648438	-242.9080047607422	1803.28857421875	59.46015548706055	-504.1129760742188	1270.767944335938	540.3651733398438	-264.6202392578125	1638.466552734375	47.83422470092773	-401.3286437988281	1179.996704101562	446.9429016113281	-256.6875	1172.96044921875	522.7998657226562	-285.2493286132812	1669.826049804688	94.11628723144533	-482.3605041503906	1049.215209960938	466.227294921875	-261.1534423828125	998.5404052734376	274.4841003417969	-313.2831115722656	1012.2001953125	526.6215209960938	-310.3984985351562	987.4637451171876	515.3116455078125	-341.945068359375	986.48974609375	525.9371948242188	-289.8377685546875	1632.955688476562	38.36153411865234	-451.7920227050781
